<?xml version="1.0" encoding="UTF-8" standalone="no"?>
<!DOCTYPE svg PUBLIC "-//W3C//DTD SVG 1.1//EN" "http://www.w3.org/Graphics/SVG/1.1/DTD/svg11.dtd">
<svg version="1.1" xmlns="http://www.w3.org/2000/svg" xmlns:xlink="http://www.w3.org/1999/xlink" preserveAspectRatio="xMidYMid meet" viewBox="0 0 640 640" width="640" height="640"><defs><path d="M434.45 480.14L454.74 480.14L475.03 480.14L496.77 480.14L517.06 480.14L537.35 480.14L557.64 480.14L579.38 477.25L598.22 467.1L611.26 451.16L611.26 430.87L592.42 422.17L572.13 414.93L553.29 406.23L534.45 398.99L514.16 390.29L492.42 383.04L473.58 374.35L454.74 362.75L437.35 351.16L419.96 338.12L404.01 325.07L386.62 313.48L372.13 298.99L356.19 283.04L343.15 265.65L328.65 248.26L312.71 233.77L295.32 222.17L277.93 212.03L259.09 203.33L241.7 193.19L222.86 181.59L205.46 171.45L183.72 161.3L161.99 158.41L140.25 158.41L119.96 162.75L106.91 178.7L98.22 197.54L89.52 216.38L83.72 236.67L82.28 256.96L86.62 277.25L98.22 294.64L114.16 307.68L135.9 310.58L156.19 314.93L177.93 317.83L198.22 325.07L218.51 330.87L237.35 339.57L259.09 351.16L276.48 367.1L330.1 435.22L377.93 471.45L398.22 475.8L427.2 480.14L447.49 481.59" id="d2aNkGviDn"></path><path d="M119.96 320L153.29 320L153.29 481.59L119.96 481.59L119.96 320Z" id="cEQfKegM4"></path><path d="M325.75 252.59L315.61 233.75L302.57 217.81L286.62 201.87L270.68 187.38L257.64 171.43L247.49 154.04L231.55 139.55L212.71 127.95L183.72 125.06L163.44 125.06L143.15 126.51L124.3 133.75L114.16 151.14L104.01 169.98L95.32 188.82L90.97 209.11L85.17 229.4L80.83 249.69" id="a1xBi2cuqG"></path><path d="M125.64 131.99L105.64 141.46L90.91 155.15L81.43 173.04L75.12 193.04L70.91 213.04L69.85 233.04L74.06 253.04L86.7 269.88L98.27 286.73" id="d1abCBzSar"></path></defs><g><g><g><use xlink:href="#d2aNkGviDn" opacity="1" fill="#000000" fill-opacity="1"></use><g><use xlink:href="#d2aNkGviDn" opacity="1" fill-opacity="0" stroke="#000000" stroke-width="1" stroke-opacity="1"></use></g></g><g><use xlink:href="#cEQfKegM4" opacity="1" fill="#000000" fill-opacity="1"></use></g><g><use xlink:href="#a1xBi2cuqG" opacity="1" fill="#000000" fill-opacity="1"></use><g><use xlink:href="#a1xBi2cuqG" opacity="1" fill-opacity="0" stroke="#020202" stroke-width="1" stroke-opacity="1"></use></g></g><g><use xlink:href="#d1abCBzSar" opacity="1" fill="#000000" fill-opacity="1"></use><g><use xlink:href="#d1abCBzSar" opacity="1" fill-opacity="0" stroke="#020202" stroke-width="1" stroke-opacity="1"></use></g></g></g></g></svg>