<?xml version="1.0" encoding="UTF-8" standalone="no"?>
<!DOCTYPE svg PUBLIC "-//W3C//DTD SVG 1.1//EN" "http://www.w3.org/Graphics/SVG/1.1/DTD/svg11.dtd">
<svg version="1.1" xmlns="http://www.w3.org/2000/svg" xmlns:xlink="http://www.w3.org/1999/xlink" preserveAspectRatio="xMidYMid meet" viewBox="0 0 640 640" width="640" height="640"><defs><path d="M361.99 596.07L383.72 596.07L406.91 596.07L427.2 596.07L451.84 596.07L472.13 596.07L496.77 596.07L518.51 593.17L538.8 590.27L559.09 584.48L580.83 580.13L598.22 569.98L595.32 549.69L583.72 532.3L569.23 517.81L550.39 504.77L530.1 497.52L509.81 493.17L489.52 488.82L469.23 483.03L451.84 472.88L434.45 462.74L418.51 449.69L401.12 438.1L386.62 420.71L373.58 404.77L359.09 388.82L346.04 371.43L334.45 354.04L288.07 277.23L277.93 259.84L235.9 167.09L224.3 146.8L173.58 101.87L140.25 101.87L119.96 101.87L98.22 109.11L77.93 120.71L59.09 130.85L44.59 149.69L37.35 168.53L35.9 188.82L35.9 209.11L35.9 229.4L35.9 251.14L41.7 271.43L48.94 290.27L61.99 306.22L79.38 317.81L101.12 325.06L121.41 332.3L141.7 338.1L159.09 351.14L176.48 361.29L190.97 377.23L201.12 394.62L212.71 413.46L221.41 433.75L230.1 454.04L238.8 472.88L247.49 491.72L254.74 510.56L263.44 529.4L273.58 546.8L288.07 562.74L304.01 575.78L325.75 581.58L346.04 590.27L367.78 596.07" id="b1yCppNWxo"></path><path d="M77.93 344.62L125.75 344.62L125.75 576.51L77.93 576.51L77.93 344.62Z" id="g9IjMSBUq"></path></defs><g><g><g><use xlink:href="#b1yCppNWxo" opacity="1" fill="#000000" fill-opacity="1"></use><g><use xlink:href="#b1yCppNWxo" opacity="1" fill-opacity="0" stroke="#000000" stroke-width="1" stroke-opacity="1"></use></g></g><g><use xlink:href="#g9IjMSBUq" opacity="1" fill="#000000" fill-opacity="1"></use></g></g></g></svg>